<svg xmlns="http://www.w3.org/2000/svg" version="1.1" xmlns:xlink="http://www.w3.org/1999/xlink" xmlns:svgjs="http://svgjs.com/svgjs" width="512" height="512" x="0" y="0" viewBox="0 0 60 60" style="enable-background:new 0 0 512 512" xml:space="preserve" class=""><g><path xmlns="http://www.w3.org/2000/svg" d="M17,20A10,10,0,1,0,27,30,10.011,10.011,0,0,0,17,20Zm0,18a8,8,0,1,1,8-8A8.009,8.009,0,0,1,17,38Z" ></path><path xmlns="http://www.w3.org/2000/svg" d="M17,24a6,6,0,1,0,6,6A6.006,6.006,0,0,0,17,24Zm0,10a4,4,0,1,1,4-4A4,4,0,0,1,17,34Z" ></path><path xmlns="http://www.w3.org/2000/svg" d="M57,0H45a3,3,0,0,0-3,3V8H40a3,3,0,0,0-3,3V29H33.956c-.009-.152-.006-.307-.019-.458a1.923,1.923,0,0,0-1.213-1.61l-2.114-.845a14.032,14.032,0,0,0-1.22-2.941l.9-2.1a1.92,1.92,0,0,0-.282-2c-.31-.37-.64-.73-.985-1.075s-.705-.675-1.077-.987a1.922,1.922,0,0,0-1.994-.28l-2.1.9a14.032,14.032,0,0,0-2.941-1.22l-.846-2.116a1.922,1.922,0,0,0-1.608-1.211,16.333,16.333,0,0,0-2.917,0,1.923,1.923,0,0,0-1.61,1.213l-.845,2.114a14.032,14.032,0,0,0-2.941,1.22l-2.1-.9a1.914,1.914,0,0,0-2,.282c-.37.31-.73.64-1.075.985s-.675.705-.987,1.077a1.92,1.92,0,0,0-.28,1.994l.9,2.1a14.032,14.032,0,0,0-1.22,2.941l-2.116.846A1.922,1.922,0,0,0,.063,28.541C.02,29.023,0,29.512,0,30s.02.977.063,1.458a1.923,1.923,0,0,0,1.213,1.61l2.114.845a14.032,14.032,0,0,0,1.22,2.941l-.9,2.1a1.92,1.92,0,0,0,.282,2c.31.37.64.73.985,1.075s.705.675,1.077.987a1.92,1.92,0,0,0,1.994.28l2.1-.9a14.032,14.032,0,0,0,2.941,1.22l.846,2.116a1.922,1.922,0,0,0,1.608,1.211c.482.043.971.063,1.459.063s.977-.02,1.458-.063a1.923,1.923,0,0,0,1.61-1.213l.845-2.114a14.032,14.032,0,0,0,2.941-1.22l2.1.9a1.919,1.919,0,0,0,2-.282c.37-.31.73-.64,1.075-.985s.675-.7.987-1.077a1.92,1.92,0,0,0,.28-1.994l-.9-2.1a14.032,14.032,0,0,0,1.22-2.941l2.114-.845h0a1.922,1.922,0,0,0,1.211-1.608c.013-.152.01-.306.019-.459H37V49a3,3,0,0,0,3,3h2v5a3,3,0,0,0,3,3H57a3,3,0,0,0,3-3V45a3,3,0,0,0-3-3H45a3,3,0,0,0-3,3v5H40a1,1,0,0,1-1-1V31h3v5a3,3,0,0,0,3,3H57a3,3,0,0,0,3-3V24a3,3,0,0,0-3-3H45a3,3,0,0,0-3,3v5H39V11a1,1,0,0,1,1-1h2v5a3,3,0,0,0,3,3H57a3,3,0,0,0,3-3V3A3,3,0,0,0,57,0ZM31.949,31.224,29.4,32.242a1,1,0,0,0-.6.688,12.111,12.111,0,0,1-1.386,3.34,1,1,0,0,0-.064.911l1.119,2.482c-.273.325-.564.64-.867.943s-.618.594-.869.844l-2.556-1.1a1,1,0,0,0-.911.064A12.111,12.111,0,0,1,19.93,41.8a1,1,0,0,0-.688.6l-.965,2.541c-.843.077-1.777.039-2.488.037L14.758,42.4a1,1,0,0,0-.688-.6,12.111,12.111,0,0,1-3.34-1.386,1,1,0,0,0-.911-.064L7.337,41.473c-.325-.273-.64-.564-.943-.867s-.594-.618-.844-.869l1.1-2.556a1,1,0,0,0-.064-.911A12.111,12.111,0,0,1,5.2,32.93a1,1,0,0,0-.6-.688l-2.541-.965C2.018,30.855,2,30.428,2,30s.018-.855.019-1.211L4.6,27.758a1,1,0,0,0,.6-.688,12.111,12.111,0,0,1,1.386-3.34,1,1,0,0,0,.064-.911L5.527,20.337c.273-.325.564-.64.867-.943s.618-.594.869-.844l2.556,1.1a1,1,0,0,0,.911-.064A12.111,12.111,0,0,1,14.07,18.2a1,1,0,0,0,.688-.6l.965-2.541c.843-.077,1.777-.039,2.488-.037L19.242,17.6a1,1,0,0,0,.688.6,12.111,12.111,0,0,1,3.34,1.386,1,1,0,0,0,.911.064l2.482-1.119c.325.273.64.564.943.867s.594.618.844.869l-1.1,2.556a1,1,0,0,0,.064.911A12.111,12.111,0,0,1,28.8,27.07a1,1,0,0,0,.6.688l2.541.965c.038.422.056.849.056,1.277C32,30.409,31.984,30.818,31.949,31.224ZM44,45a1,1,0,0,1,1-1H57a1,1,0,0,1,1,1V57a1,1,0,0,1-1,1H45a1,1,0,0,1-1-1Zm0-21a1,1,0,0,1,1-1H57a1,1,0,0,1,1,1V36a1,1,0,0,1-1,1H45a1,1,0,0,1-1-1Zm14-9a1,1,0,0,1-1,1H45a1,1,0,0,1-1-1V3a1,1,0,0,1,1-1H57a1,1,0,0,1,1,1Z" ></path><path xmlns="http://www.w3.org/2000/svg" d="M53.168,5.445l-3.323,4.986L48.707,9.293a1,1,0,0,0-1.414,1.414l2,2A1,1,0,0,0,50,13c.032,0,.065,0,.1-.005a1,1,0,0,0,.733-.44l4-6a1,1,0,1,0-1.664-1.11Z" ></path><path xmlns="http://www.w3.org/2000/svg" d="M49.293,33.707A1,1,0,0,0,50,34c.032,0,.065,0,.1-.005a1,1,0,0,0,.733-.44l4-6a1,1,0,1,0-1.664-1.11l-3.323,4.986-1.138-1.138a1,1,0,0,0-1.414,1.414Z" ></path></g></svg>
