<?xml version="1.0" standalone="no"?>
<!DOCTYPE svg PUBLIC "-//W3C//DTD SVG 20010904//EN"
 "http://www.w3.org/TR/2001/REC-SVG-20010904/DTD/svg10.dtd">
<svg version="1.0" xmlns="http://www.w3.org/2000/svg"
 width="300.000000pt" height="300.000000pt" viewBox="0 0 300.000000 300.000000"
 preserveAspectRatio="xMidYMid meet">
<metadata>
Created by potrace 1.14, written by Peter Selinger 2001-2017
</metadata>
<g transform="translate(0.000000,300.000000) scale(0.100000,-0.100000)"
fill="#000000" stroke="none">
<path d="M1457 2524 c-5 -6 -27 -9 -127 -18 -19 -2 -42 -6 -50 -9 -30 -10
-105 -28 -114 -27 -5 1 -12 -2 -15 -7 -5 -7 -61 -31 -86 -36 -5 -1 -16 -8 -23
-15 -8 -7 -18 -10 -23 -7 -5 4 -9 1 -9 -5 0 -6 -4 -8 -10 -5 -5 3 -10 2 -10
-3 0 -6 -18 -19 -41 -31 -22 -12 -50 -30 -61 -41 -12 -11 -26 -17 -31 -13 -6
3 -7 1 -3 -5 4 -7 3 -12 -2 -12 -12 0 -120 -105 -163 -160 -42 -53 -109 -157
-109 -169 0 -5 -7 -14 -15 -21 -8 -6 -14 -15 -13 -18 3 -9 -33 -104 -45 -119
-5 -7 -7 -13 -3 -13 3 0 2 -10 -3 -23 -5 -13 -12 -39 -15 -58 -3 -19 -10 -56
-15 -84 -10 -51 -8 -305 2 -322 3 -5 9 -23 11 -40 29 -164 182 -453 240 -453
14 0 15 -4 6 -20 -10 -19 -125 -177 -155 -213 -8 -9 -15 -21 -15 -26 0 -5 -3
-11 -8 -13 -4 -1 -38 -46 -76 -98 -62 -87 -27 -54 409 384 261 263 477 477
480 475 4 -5 154 -316 180 -376 18 -42 18 -42 35 -20 9 12 52 79 96 150 43 70
91 146 106 170 15 23 31 49 35 57 5 9 33 55 63 103 30 49 62 99 70 113 8 13
89 144 180 291 91 148 170 277 176 288 6 11 25 44 42 73 32 53 42 81 19 51 -7
-8 -22 -28 -34 -43 l-22 -28 -58 62 c-127 137 -354 270 -503 296 -14 3 -31 7
-39 10 -16 5 -114 17 -148 18 -13 0 -23 4 -23 9 0 4 -6 5 -12 0 -17 -10 -51
-10 -59 0 -3 4 -8 5 -12 1z m163 -1208 c0 4 3 5 6 1 4 -3 0 -13 -8 -21 -14
-13 -17 -12 -27 10 -10 23 -9 24 9 14 11 -6 20 -8 20 -4z"/>
<path d="M2297 1993 c-59 -94 -133 -215 -142 -231 -5 -10 -55 -91 -110 -181
-55 -89 -111 -181 -124 -204 -13 -23 -30 -48 -38 -55 -7 -7 -13 -17 -13 -22 0
-8 -95 -165 -117 -196 -9 -11 -30 -46 -50 -84 -8 -14 -34 -56 -58 -95 -50 -77
-47 -89 18 -81 41 6 75 25 82 46 3 8 18 29 33 46 15 17 36 43 47 59 95 132
239 277 314 318 63 34 126 43 176 27 38 -13 125 -88 125 -108 0 -25 19 -10 26
21 47 208 31 415 -44 604 -27 67 -85 173 -94 173 -4 0 -18 -17 -31 -37z m97
-295 c17 -63 27 -123 31 -195 l2 -53 -113 0 c-63 0 -114 3 -114 6 0 6 24 48
95 169 22 39 47 82 54 98 8 15 18 27 22 27 4 0 14 -24 23 -52z"/>
<path d="M2366 1146 c5 -21 4 -27 -5 -22 -6 4 -11 4 -11 -1 0 -11 52 -34 59
-27 3 4 0 9 -8 12 -9 3 -5 12 15 29 l29 24 -28 -17 c-15 -9 -29 -15 -31 -13
-2 2 -8 13 -15 24 -10 18 -10 16 -5 -9z"/>
<path d="M2300 1015 c0 -8 5 -17 11 -20 6 -4 15 -17 20 -29 8 -20 9 -20 6 4
-1 14 -9 28 -17 32 -10 4 -5 7 15 8 17 2 33 2 38 1 4 0 7 3 7 7 0 4 -18 8 -40
9 -27 1 -40 -3 -40 -12z"/>
<path d="M2222 907 l-22 -23 29 -22 c28 -20 30 -20 45 -3 19 21 21 42 4 59
-18 18 -32 15 -56 -11z m55 -31 c-8 -20 -16 -20 -42 0 -20 15 -20 15 0 30 17
12 21 12 33 0 8 -8 12 -22 9 -30z"/>
<path d="M2136 812 c-1 -4 1 -23 7 -42 9 -33 10 -34 18 -12 5 12 18 26 30 30
19 7 17 9 -15 19 -20 6 -38 8 -40 5z m34 -21 c0 -6 -4 -13 -10 -16 -5 -3 -10
1 -10 9 0 9 5 16 10 16 6 0 10 -4 10 -9z"/>
<path d="M949 736 c12 -14 11 -19 -4 -36 -10 -11 -16 -23 -12 -26 3 -3 13 6
22 20 11 16 23 23 33 19 15 -4 15 -3 2 6 -8 7 -24 17 -35 23 -18 10 -19 10 -6
-6z"/>
<path d="M1987 679 c5 -16 2 -20 -8 -17 -8 3 -13 11 -11 17 1 6 -2 11 -8 11
-16 0 -11 -23 11 -50 15 -18 19 -20 15 -6 -5 15 -2 18 19 14 14 -3 25 -1 25 3
0 5 -7 9 -15 9 -8 0 -15 9 -15 20 0 11 -4 20 -9 20 -5 0 -7 -10 -4 -21z"/>
<path d="M1045 639 c-16 -12 -22 -18 -12 -15 10 3 25 -2 37 -14 27 -27 29 -25
26 12 -3 40 -13 43 -51 17z m35 -5 c0 -8 -5 -12 -10 -9 -6 4 -8 11 -5 16 9 14
15 11 15 -7z"/>
<path d="M1880 639 c0 -17 26 -57 33 -49 2 3 -4 19 -14 35 -11 17 -19 23 -19
14z"/>
<path d="M1810 601 c16 -31 12 -35 -16 -17 -14 10 -31 15 -37 13 -7 -3 -4 -8
8 -12 11 -5 28 -15 37 -22 27 -23 40 -7 23 28 -9 16 -18 29 -21 29 -2 0 0 -9
6 -19z"/>
<path d="M1175 584 c-25 -22 -27 -25 -8 -19 15 4 29 -1 44 -16 l22 -22 -6 33
c-4 18 -7 36 -7 41 0 15 -13 10 -45 -17z m35 -4 c0 -5 -4 -10 -10 -10 -5 0
-10 5 -10 10 0 6 5 10 10 10 6 0 10 -4 10 -10z"/>
<path d="M1303 559 c-7 -17 -7 -31 -2 -35 5 -3 9 3 10 13 0 16 2 15 16 -4 8
-13 20 -23 25 -23 6 0 5 7 -3 16 -9 11 -10 17 -1 23 13 8 4 25 -19 33 -11 4
-19 -3 -26 -23z m37 1 c0 -5 -4 -10 -10 -10 -5 0 -10 5 -10 10 0 6 5 10 10 10
6 0 10 -4 10 -10z"/>
<path d="M1447 563 c-10 -10 -8 -25 2 -18 5 3 12 -3 16 -14 3 -11 13 -25 22
-33 12 -9 10 -2 -6 30 -23 45 -24 46 -34 35z"/>
<path d="M1568 563 c27 -5 28 -11 1 -39 -19 -20 -19 -22 -2 -28 9 -4 14 -4 10
0 -3 4 2 19 13 34 27 37 26 40 -12 39 -24 -1 -27 -3 -10 -6z"/>
<path d="M1767 550 c3 -11 7 -20 9 -20 2 0 4 9 4 20 0 11 -4 20 -9 20 -5 0 -7
-9 -4 -20z"/>
<path d="M1427 523 c-13 -12 -7 -25 6 -14 8 6 18 7 22 3 5 -4 5 -1 1 6 -8 13
-19 16 -29 5z"/>
</g>
</svg>
